<?xml version="1.0" encoding="utf-8"?>
<!-- Generator: Adobe Illustrator 17.1.0, SVG Export Plug-In . SVG Version: 6.00 Build 0)  -->
<!DOCTYPE svg PUBLIC "-//W3C//DTD SVG 1.1//EN" "http://www.w3.org/Graphics/SVG/1.1/DTD/svg11.dtd">
<svg version="1.1" id="Layer_1" xmlns="http://www.w3.org/2000/svg" xmlns:xlink="http://www.w3.org/1999/xlink" x="0px" y="0px"
	 width="30px" height="330px" viewBox="0 0 30 330" enable-background="new 0 0 30 330" xml:space="preserve">
<g id="grid" display="none">
	<rect x="-0.3" display="inline" opacity="0.26" fill="#404041" enable-background="new    " width="30.6" height="180"/>
</g>
<g display="none" opacity="0.6">
	<g display="inline">
		<circle fill="#D8D8D8" cx="22" cy="298.2" r="22"/>
	</g>
</g>
<g display="none" opacity="0.6">
	<g display="inline">
		<circle fill="#D8D8D8" cx="86" cy="299" r="22"/>
	</g>
</g>
<g display="none" opacity="0.6">
	<circle display="inline" fill="#D8D8D8" cx="22" cy="438" r="20"/>
</g>
<g display="none" opacity="0.6">
	<circle display="inline" fill="#D8D8D8" cx="86" cy="438" r="20"/>
</g>
<g display="none" opacity="0.6">
	<circle display="inline" fill="#D8D8D8" cx="150" cy="438" r="20"/>
</g>
<g>
	<circle fill="#C60C30" cx="15" cy="15" r="15"/>
	<g>
		<rect x="7" y="14" fill="#FFFFFF" width="14" height="2"/>
		
			<rect x="12.8" y="11" transform="matrix(0.7071 0.7072 -0.7072 0.7071 13.8187 -9.2896)" fill="#FFFFFF" width="10.7" height="2"/>
		
			<rect x="12.9" y="17.2" transform="matrix(-0.7071 0.7071 -0.7071 -0.7071 44.0762 18.1801)" fill="#FFFFFF" width="10.7" height="2"/>
	</g>
</g>
<g>
	<circle fill="#C60C30" cx="15" cy="45" r="15"/>
	<g>
		<rect x="9" y="44" fill="#FFFFFF" width="14" height="2"/>
		
			<rect x="6.4" y="41" transform="matrix(-0.7071 0.7072 -0.7072 -0.7071 49.8139 63.4123)" fill="#FFFFFF" width="10.7" height="2"/>
		
			<rect x="6.5" y="47.2" transform="matrix(0.7071 0.7071 -0.7071 0.7071 37.5229 5.7443)" fill="#FFFFFF" width="10.7" height="2"/>
	</g>
</g>
<g>
	<circle fill="#C60C30" cx="15" cy="225" r="15"/>
	<polygon fill="#FFFFFF" points="13.8,232.8 6.8,225.8 6.8,219.9 13.8,227 23.2,217.6 23.2,223.4 	"/>
</g>
<g>
	<circle fill="#C60C30" cx="15" cy="255" r="15"/>
	<g>
		<rect x="12.9" y="244.7" fill="#FFFFFF" width="4.2" height="14.6"/>
		<circle fill="#FFFFFF" cx="15" cy="264" r="2.1"/>
	</g>
</g>
<g>
	
		<rect x="7.9" y="164.7" transform="matrix(0.7072 0.7071 -0.7071 0.7072 121.5659 39.3844)" fill="#C60C30" width="10.7" height="3.4"/>
	
		<rect x="13.1" y="164.8" transform="matrix(0.7071 -0.7071 0.7071 0.7071 -112.345 61.8086)" fill="#C60C30" width="10.7" height="3.4"/>
</g>
<g>
	
		<rect x="10.6" y="135.9" transform="matrix(0.7071 -0.7072 0.7072 0.7071 -92.6273 51.5999)" fill="#C60C30" width="10.7" height="3.4"/>
	
		<rect x="10.7" y="130.7" transform="matrix(-0.7071 -0.7071 0.7071 -0.7071 -66.2499 237.3579)" fill="#C60C30" width="10.7" height="3.4"/>
</g>
<g>
	
		<rect x="11" y="190.7" transform="matrix(-0.7071 0.7072 -0.7072 -0.7071 163.9691 316.8755)" fill="#C60C30" width="10.7" height="3.4"/>
	
		<rect x="10.9" y="195.9" transform="matrix(0.7071 0.7071 -0.7071 0.7071 144.494 46.3612)" fill="#C60C30" width="10.7" height="3.4"/>
</g>
<g>
	<g>
		<rect x="6" y="276" fill="#FFFFFF" width="18" height="4"/>
	</g>
	<g>
		<rect x="6" y="282" fill="#FFFFFF" width="12.7" height="4"/>
	</g>
	<g>
		<rect x="6" y="288" fill="#FFFFFF" width="18" height="4"/>
	</g>
</g>
<g>
	
		<rect x="7.1" y="311.6" transform="matrix(0.7072 0.7071 -0.7071 0.7072 225.1501 82.9649)" fill="#FFFFFF" width="10.7" height="3.4"/>
	
		<rect x="12.3" y="311.6" transform="matrix(0.7071 -0.7071 0.7071 0.7071 -216.3773 104.2577)" fill="#FFFFFF" width="10.7" height="3.4"/>
</g>
<g>
	
		<rect x="12.1" y="316.7" transform="matrix(-0.7072 -0.7071 0.7071 -0.7072 -195.2677 555.961)" fill="#FFFFFF" width="10.7" height="3.4"/>
	
		<rect x="7.1" y="316.7" transform="matrix(-0.7071 0.7071 -0.7071 -0.7071 246.437 534.6907)" fill="#FFFFFF" width="10.7" height="3.4"/>
</g>
<g>
	<g>
		<path fill="#C60C30" d="M14.8,109.6c-2.4,0-4.4-2-4.4-4.4s2-4.4,4.4-4.4s4.4,2,4.4,4.4S17.2,109.6,14.8,109.6z"/>
		<path fill="#C60C30" d="M14.8,102.3c1.6,0,2.9,1.3,2.9,2.9s-1.3,2.9-2.9,2.9s-2.9-1.3-2.9-2.9C11.9,103.6,13.2,102.3,14.8,102.3
			 M14.8,99.3c-3.3,0-5.9,2.6-5.9,5.9s2.6,5.9,5.9,5.9s5.9-2.6,5.9-5.9C20.7,101.9,18.1,99.3,14.8,99.3L14.8,99.3z"/>
	</g>
</g>
<g>
	<circle fill="#FFFFFF" cx="6" cy="66" r="5.5"/>
	<path d="M6,72c-3.3,0-6-2.7-6-6c0-3.3,2.7-6,6-6s6,2.7,6,6C12,69.3,9.3,72,6,72 M6,61.8c-2.3,0-4.2,1.9-4.2,4.2
		c0,2.3,1.9,4.2,4.2,4.2s4.2-1.9,4.2-4.2C10.2,63.7,8.3,61.8,6,61.8"/>
</g>
<g>
	<g>
		<rect x="16.3" y="60" fill="#FFFFFF" width="13.4" height="3"/>
	</g>
	<g>
		<rect x="16.3" y="64.5" fill="#FFFFFF" width="9.4" height="3"/>
	</g>
	<g>
		<rect x="16.3" y="68.9" fill="#FFFFFF" width="13.4" height="3"/>
	</g>
</g>
</svg>
